# xmcd CD database file
#
# Track frame offsets:
#	182
#	21927
#	40860
#	57260
#	77387
#	98400
#	118750
#	138060
#	156825
#	177827
#
# Disc length: 2618 seconds
#
# Revision: 1
# Processed by: cddbd v1.4PL0 Copyright (c) Steve Scherf et al.
# Submitted via: CDex 1.50
#
DISCID=6f0a380a
DTITLE=Monchy - Capricho
DYEAR=1994
DGENRE=Merengue
TTITLE0=Tu Eres Mi Hembra
TTITLE1=La Sufrida
TTITLE2=Nena Del Sol
TTITLE3=Cintura
TTITLE4=Me Quemo
TTITLE5=Ayer
TTITLE6=Te Colmare De Besos
TTITLE7=Baila Con Ella
TTITLE8=A Escondidas
TTITLE9=Corazon De Dinero
EXTD=YEAR: 1994
EXTT0=
EXTT1=
EXTT2=
EXTT3=
EXTT4=
EXTT5=
EXTT6=
EXTT7=
EXTT8=
EXTT9=
PLAYORDER=
